<?xml version="1.0" standalone="no"?>
<!DOCTYPE svg PUBLIC "-//W3C//DTD SVG 20010904//EN"
 "http://www.w3.org/TR/2001/REC-SVG-20010904/DTD/svg10.dtd">
<svg version="1.0" xmlns="http://www.w3.org/2000/svg"
 width="512.000000pt" height="512.000000pt" viewBox="0 0 512.000000 512.000000"
 preserveAspectRatio="xMidYMid meet">

<g transform="translate(0.000000,512.000000) scale(0.100000,-0.100000)"
fill="#000000" stroke="none">
<path d="M0 2560 l0 -2560 2560 0 2560 0 0 2560 0 2560 -2560 0 -2560 0 0
-2560z m2709 1680 c290 -26 563 -121 810 -283 491 -322 783 -933 732 -1533
-56 -654 -476 -1208 -1091 -1437 -219 -82 -411 -112 -655 -104 -339 12 -608
97 -895 285 -350 229 -597 576 -700 986 -73 287 -65 608 21 900 77 261 251
543 454 735 143 135 266 217 445 297 292 130 578 180 879 154z"/>
<path d="M2337 4004 c-392 -61 -711 -243 -943 -540 -442 -565 -422 -1323 49
-1863 203 -232 478 -394 792 -467 109 -25 138 -28 320 -28 216 -1 297 10 459
61 467 147 861 563 977 1032 40 160 53 275 46 411 -18 333 -123 614 -328 870
-77 98 -204 220 -281 272 -138 93 -326 181 -466 218 -183 49 -441 63 -625 34z
m922 -698 c-134 -131 -421 -413 -637 -627 -217 -214 -398 -389 -403 -389 -5 0
-9 110 -9 261 l0 261 127 132 c70 72 232 237 360 366 l233 235 286 0 286 0
-243 -239z m-1153 -743 l-1 -978 -208 -3 -207 -2 0 980 0 980 208 0 209 0 -1
-977z m614 -180 c62 -65 221 -228 354 -363 133 -135 282 -289 333 -343 l91
-97 -286 0 -287 0 -145 142 c-359 351 -480 472 -480 481 0 10 290 296 301 297
4 0 57 -53 119 -117z"/>
</g>
</svg>
